# xmcd
#
# Track frame offsets: 
#        150
#        12728
#        25808
#        41925
#        59010
#        72041
#        89328
#        101280
#        117766
#        131180
#        144274
#        163749
#        180974
#        196799
#        219764
#        241029
#        257606
#        276391
#        290843
#        306709
#
# Disc length: 4420 seconds
#
# Revision: 0
# Processed by: cddbd v1.5.2PL0 Copyright (c) Steve Scherf et al.
# Submitted via: ExactAudioCopyFreeDBPlugin 1.0
#
DISCID=28114214
DTITLE=Guy Clark - Boats to Build - Dublin Blues
DYEAR=1992
DGENRE=Country
TTITLE0=Baton Rouge
TTITLE1=Picasso's Mandolin
TTITLE2=How'd You Get This Number
TTITLE3=Boats to Build
TTITLE4=Too Much
TTITLE5=Ramblin' Jack and Mahan
TTITLE6=I Don't Love You Much, Do I
TTITLE7=Jack of All Trades
TTITLE8=Madonna w. Child ca. 1969
TTITLE9=Must Be My Baby
TTITLE10=Dublin Blues
TTITLE11=Black Diamond Strings
TTITLE12=Shut Up and Talk to Me
TTITLE13=Stuff That Works
TTITLE14=Hank WIlliams Said It Best
TTITLE15=The Cape
TTITLE16=Baby Took a Limo to Memphis
TTITLE17=Tryin' to Try
TTITLE18=Hangin' Your Life on the Wall
TTITLE19=The Randall Knife
EXTD=
EXTT0=
EXTT1=
EXTT2=
EXTT3=
EXTT4=
EXTT5=
EXTT6=
EXTT7=
EXTT8=
EXTT9=
EXTT10=
EXTT11=
EXTT12=
EXTT13=
EXTT14=
EXTT15=
EXTT16=
EXTT17=
EXTT18=
EXTT19=
PLAYORDER=
